<svg id="Layer" enable-background="new 0 0 512 512" height="512" viewBox="0 0 512 512" width="512" xmlns="http://www.w3.org/2000/svg"><path d="m488 456h-464c-13.255 0-24-10.745-24-24v-352c0-13.255 10.745-24 24-24h464c13.255 0 24 10.745 24 24v352c0 13.255-10.745 24-24 24z" fill="#f0eaea"/><g fill="#00e1d7"><path d="m65.185 153.827c-8.97-3.717-19.291-1.662-26.155 5.202l-32 32c-9.372 9.373-9.372 24.568 0 33.941 6.753 6.753 16.53 8.638 24.971 5.663v105.367c0 13.255 10.745 24 24 24s24-10.745 24-24v-160c-.001-9.707-5.849-18.458-14.816-22.173z"/><path d="m180 152h-32c-24.262 0-44 19.738-44 44v120c0 24.262 19.738 44 44 44h32c24.262 0 44-19.738 44-44v-120c0-24.262-19.738-44-44-44zm-4 160h-24v-112h24z"/><path d="m324 152h-32c-24.262 0-44 19.738-44 44v120c0 24.262 19.738 44 44 44h32c24.262 0 44-19.738 44-44v-120c0-24.262-19.738-44-44-44zm-4 48v32h-24v-32zm-24 112v-32h24v32z"/><path d="m468 152h-32c-24.262 0-44 19.738-44 44v120c0 24.262 19.738 44 44 44h32c24.262 0 44-19.738 44-44v-120c0-24.262-19.738-44-44-44zm-4 160h-24v-112h24z"/></g></svg>