<svg id="Layer" enable-background="new 0 0 512 512" height="512" viewBox="0 0 512 512" width="512" xmlns="http://www.w3.org/2000/svg"><path d="m488 456h-464c-13.255 0-24-10.745-24-24v-352c0-13.255 10.745-24 24-24h464c13.255 0 24 10.745 24 24v352c0 13.255-10.745 24-24 24z" fill="#f0eaea"/><g fill="#00e1d7"><path d="m420 152h-32c-24.262 0-44 19.738-44 44v120c0 24.262 19.738 44 44 44h32c24.262 0 44-19.738 44-44v-120c0-24.262-19.738-44-44-44zm-4 160h-24v-112h24z"/><path d="m276 152h-32c-24.262 0-44 19.738-44 44v120c0 24.262 19.738 44 44 44h32c24.262 0 44-19.738 44-44v-120c0-24.262-19.738-44-44-44zm-4 48v32h-24v-32zm-24 112v-32h24v32z"/><path d="m152 152c-13.255 0-24 10.745-24 24v56h-24v-56c0-13.255-10.745-24-24-24s-24 10.745-24 24v80c0 13.255 10.745 24 24 24h48v56c0 13.255 10.745 24 24 24s24-10.745 24-24v-160c0-13.255-10.745-24-24-24z"/></g></svg>