<svg id="Layer" enable-background="new 0 0 512 512" height="512" viewBox="0 0 512 512" width="512" xmlns="http://www.w3.org/2000/svg"><path d="m488 456h-464c-13.255 0-24-10.745-24-24v-352c0-13.255 10.745-24 24-24h464c13.255 0 24 10.745 24 24v352c0 13.255-10.745 24-24 24z" fill="#f0eaea"/><g fill="#00e1d7"><path d="m296 360h-72c-13.255 0-24-10.745-24-24v-80c0-13.255 10.745-24 24-24h48v-32h-48c-13.255 0-24-10.745-24-24s10.745-24 24-24h72c13.255 0 24 10.745 24 24v80c0 13.255-10.745 24-24 24h-48v32h48c13.255 0 24 10.745 24 24s-10.745 24-24 24z"/><path d="m420 360h-32c-24.262 0-44-19.738-44-44v-120c0-24.262 19.738-44 44-44h32c24.262 0 44 19.738 44 44v120c0 24.262-19.738 44-44 44zm-28-48h24v-112h-24zm28-112h.01z"/><path d="m152 360c-13.255 0-24-10.745-24-24v-136h-56c-13.255 0-24-10.745-24-24s10.745-24 24-24h80c13.255 0 24 10.745 24 24v160c0 13.255-10.745 24-24 24z"/></g></svg>