<svg id="Capa_1" enable-background="new 0 0 512 512" height="512" viewBox="0 0 512 512" width="512" xmlns="http://www.w3.org/2000/svg"><g><path d="m92.549 158.71c15.045 0 27.241 12.196 27.242 27.24.001-15.045 12.197-27.24 27.242-27.24s27.242 12.196 27.242 27.242c0-15.045 12.197-27.242 27.242-27.242s27.242 12.196 27.242 27.242c0-15.045 12.197-27.242 27.242-27.242s27.242 12.196 27.242 27.242c0-15.045 12.197-27.242 27.242-27.242s27.242 12.196 27.242 27.242c0-15.045 12.197-27.242 27.242-27.242s27.242 12.196 27.242 27.242c0-15.045 12.197-27.242 27.242-27.242 7.116 0 13.593 2.731 18.445 7.199 1.408-3.726 2.225-13.914 2.311-18.117.359-17.504-11.54-32.406-27.813-36.482-4.779-1.197-7.505-6.164-6.288-10.938 6.307-24.74-15.572-49.363-41.129-45.328-4.81.76-9.255-2.545-10.136-7.334-4.508-24.506-33.019-37.36-54.375-25.05-4.34 2.502-9.808.733-12.235-3.649-6.277-11.336-18.358-19.011-32.233-19.011-13.877 0-25.96 7.678-32.235 19.016-2.426 4.383-7.893 6.147-12.235 3.649-21.343-12.28-49.936.497-54.39 25.111-.86 4.754-5.256 8.068-10.034 7.352-21.395-3.208-42.187 13.284-42.187 36.458 0 3.066.376 6.044 1.084 8.891 1.177 4.732-1.583 9.638-6.316 10.812-16.326 4.048-28.263 18.985-27.894 36.521.088 4.197.905 14.378 2.311 18.098 4.852-4.467 11.329-7.198 18.445-7.198z" fill="#ffe97b"/><g><path d="m147.426 147.811c-.369-17.537 11.569-32.473 27.894-36.521 4.733-1.174 7.493-6.08 6.316-10.812-.708-2.847-1.084-5.825-1.084-8.891 0-23.174 20.792-39.666 42.187-36.458 4.777.716 9.174-2.598 10.034-7.352 4.454-24.614 33.047-37.391 54.39-25.111 2.114 1.216 4.493 1.416 6.66.801-2.289-.646-4.343-2.201-5.591-4.454-6.276-11.338-18.357-19.013-32.232-19.013-13.877 0-25.96 7.677-32.235 19.016-2.426 4.383-7.893 6.146-12.235 3.648-21.343-12.28-49.936.497-54.39 25.111-.86 4.754-5.257 8.068-10.034 7.352-21.395-3.208-42.187 13.284-42.187 36.458 0 3.066.376 6.044 1.084 8.891 1.177 4.732-1.583 9.638-6.316 10.812-16.326 4.048-28.263 18.985-27.894 36.521.088 4.196.905 14.378 2.311 18.098 4.853-4.468 11.329-7.2 18.446-7.2 15.045 0 27.241 12.196 27.242 27.241.001-15.045 12.197-27.24 27.242-27.24.422 0 .841.013 1.259.032-.517-4.036-.816-8.491-.867-10.929z" fill="#f4dd45"/></g><g><path d="m336.861 119.271c-.631 0-1.272-.078-1.912-.241-4.131-1.053-6.626-5.255-5.573-9.386 1.73-6.786-.204-14.094-5.174-19.549-4.971-5.456-11.808-7.957-18.752-6.859-7.967 1.263-15.358-4.031-16.832-12.043-1.23-6.689-5.633-12.235-12.08-15.215-6.417-2.966-13.739-2.726-19.585.645-3.693 2.127-8.413.861-10.542-2.833-2.129-3.693-.86-8.413 2.833-10.542 10.184-5.87 22.81-6.351 33.772-1.282 10.736 4.962 18.437 14.628 20.688 25.924 11.773-1.633 23.66 2.752 31.911 11.809 8.478 9.306 11.738 21.926 8.722 33.759-.892 3.49-4.032 5.813-7.476 5.813z" fill="#f4dd45"/></g><path d="m364.967 152.02c-15.305 0-27.756 12.452-27.756 27.753l-.772 119.867.274.146c4.364 2.33 8.248 4.848 11.543 7.482 3.195 2.554 7.161 3.961 11.167 3.961h26.202c1.319 0 2.624.353 3.773 1.022l.756.44 2.568-132.914c.002-15.305-12.45-27.757-27.755-27.757z" fill="#dbedff"/><path d="m365.438 182.844c0-11.1 5.901-20.846 14.729-26.274-4.37-2.872-9.592-4.549-15.201-4.549-15.305 0-27.756 12.452-27.756 27.753l-.772 119.867.274.146c4.364 2.33 8.248 4.848 11.543 7.482 3.195 2.554 7.161 3.961 11.167 3.961h5.188z" fill="#b5dcff"/><path d="m385.626 365.138h-26.202c-4.006 0-7.972 1.407-11.167 3.961-3.43 2.742-7.482 5.349-12.043 7.75l-.273.144-.87 135.007h51.233l2.854-147.7-.722.29c-.902.364-1.848.548-2.81.548z" fill="#dbedff"/><path d="m361.01 365.138h-1.586c-4.006 0-7.972 1.407-11.167 3.961-3.43 2.742-7.482 5.349-12.043 7.75l-.273.144-.87 135.007h24.961z" fill="#b5dcff"/><path d="m256 152.02c-15.305 0-27.756 12.452-27.756 27.757v104.697l.576-.069c17.72-2.138 36.64-2.138 54.36 0l.576.069v-104.697c0-15.305-12.451-27.757-27.756-27.757z" fill="#dbedff"/><path d="m228.82 391.964-.576-.069v120.105h55.513v-120.106l-.576.069c-17.721 2.138-36.642 2.138-54.361.001z" fill="#dbedff"/><g><path d="m256 179.777c0-10.251 5.59-19.216 13.878-24.023-4.086-2.37-8.824-3.734-13.878-3.734-15.305 0-27.756 12.452-27.756 27.757v104.697l.576-.069c8.86-1.069 18.02-1.603 27.18-1.603z" fill="#b5dcff"/></g><g><path d="m228.82 391.964-.576-.069v120.105h27.756v-118.433c-9.16 0-18.32-.535-27.18-1.603z" fill="#b5dcff"/></g><path d="m152.576 311.23c4.006 0 7.972-1.407 11.167-3.961 3.294-2.634 7.178-5.151 11.543-7.482l.274-.146-.772-119.864c0-15.305-12.451-27.757-27.756-27.757s-27.756 12.452-27.756 27.767l2.568 132.905.756-.44c1.149-.668 2.453-1.022 3.773-1.022z" fill="#dbedff"/><path d="m175.787 376.849c-4.56-2.4-8.612-5.007-12.044-7.75-3.195-2.554-7.161-3.961-11.167-3.961h-26.202c-.963 0-1.908-.184-2.81-.548l-.722-.29 2.844 147.196.01.505h51.233l-.87-135.007z" fill="#dbedff"/><path d="m146.734 179.787c0-10.32 5.658-19.332 14.028-24.118-4.052-2.317-8.737-3.648-13.729-3.648-15.305 0-27.756 12.452-27.756 27.767l2.568 132.905.756-.44c1.149-.668 2.453-1.022 3.773-1.022h22.901z" fill="#b5dcff"/><path d="m150.316 365.138h-23.942c-.963 0-1.908-.184-2.81-.548l-.722-.29 2.844 147.196.01.505h27.458l-.01-.505z" fill="#b5dcff"/><path d="m419.451 152.02c-15.305 0-27.756 12.451-27.756 27.746l-2.551 132.03-.006.303.261.152c2.317 1.347 3.755 3.84 3.755 6.507v38.851c0 3.085-1.852 5.825-4.719 6.98l-.316.127-2.845 147.284h20.709c15.917 0 28.866-12.459 29.48-28.363l11.743-303.861c.001-15.305-12.45-27.756-27.755-27.756z" fill="#f87c68"/><path d="m414.835 364.717 3.574-184.951c0-10.459 5.824-19.584 14.399-24.312-3.965-2.186-8.518-3.434-13.357-3.434-15.305 0-27.756 12.451-27.756 27.746l-2.551 132.03-.006.303.261.152c2.317 1.347 3.755 3.84 3.755 6.507v38.851c0 3.085-1.852 5.825-4.719 6.98l-.316.127-2.845 147.284h20.709c2.063 0 4.075-.214 6.018-.613z" fill="#ec625e"/><path d="m123.564 364.59c-2.866-1.155-4.718-3.895-4.718-6.98v-38.851c0-2.667 1.439-5.161 3.755-6.508l.261-.152-2.557-132.323c0-15.305-12.451-27.756-27.756-27.756s-27.757 12.451-27.756 27.776l11.743 303.841c.614 15.904 13.564 28.363 29.481 28.363h20.709l-2.846-147.283z" fill="#f87c68"/><path d="m103.618 483.637-11.742-303.841c0-10.404 5.741-19.477 14.215-24.236-4.009-2.251-8.626-3.54-13.542-3.54-15.305 0-27.757 12.451-27.756 27.776l11.743 303.841c.614 15.904 13.564 28.363 29.481 28.363h20.709l-.014-.695c-12.863-2.815-22.564-13.957-23.094-27.668z" fill="#ec625e"/><path d="m310.483 152.02c-15.305 0-27.756 12.452-27.756 27.757v104.573l.453.055c20.897 2.522 39.408 7.841 53.533 15.382l.751.401.775-120.411c.001-15.305-12.451-27.757-27.756-27.757z" fill="#f87c68"/><path d="m309.217 182.605c0-11.401 6.275-21.359 15.549-26.618-4.175-2.516-9.062-3.967-14.282-3.967-15.305 0-27.756 12.452-27.756 27.757v104.573l.453.055c9.199 1.11 17.934 2.764 26.037 4.909v-106.709z" fill="#ec625e"/><path d="m283.18 391.964-.453.055v119.981h53.373l.873-135.551-.76.4c-14.061 7.398-32.4 12.625-53.033 15.115z" fill="#f87c68"/><path d="m311.116 386.532c-8.638 2.399-18.018 4.234-27.937 5.431l-.453.055v119.982h28.389v-125.468z" fill="#ec625e"/><path d="m201.516 152.02c-15.305 0-27.756 12.452-27.756 27.76l.775 120.408.751-.401c14.126-7.541 32.637-12.861 53.533-15.382l.453-.055v-104.573c.001-15.305-12.451-27.757-27.756-27.757z" fill="#f87c68"/><path d="m175.787 376.849-.76-.4.87 135.04.003.511h53.372v-119.982l-.453-.055c-20.632-2.489-38.971-7.716-53.032-15.114z" fill="#f87c68"/><path d="m200.487 179.78c0-10.465 5.821-19.593 14.393-24.322-3.967-2.189-8.522-3.438-13.364-3.438-15.305 0-27.756 12.452-27.756 27.76l.775 120.408.751-.401c7.497-4.003 16.24-7.372 25.909-10.037z" fill="#ec625e"/><path d="m201.821 386.788c-9.702-2.632-18.488-5.97-26.034-9.939l-.76-.4.87 135.04.003.511h26.727l-.004-.511z" fill="#ec625e"/><path d="m385.626 310.201h-26.202c-3.773 0-7.512-1.327-10.525-3.736-19.056-15.236-54.653-24.701-92.899-24.701s-73.842 9.465-92.899 24.701c-3.014 2.409-6.752 3.736-10.525 3.736h-26.202c-4.719 0-8.557 3.839-8.557 8.558v38.851c0 4.719 3.839 8.557 8.557 8.557h26.202c3.773 0 7.511 1.327 10.525 3.736 19.057 15.236 54.654 24.701 92.899 24.701s73.842-9.465 92.899-24.701c3.014-2.41 6.751-3.736 10.525-3.736h26.202c4.719 0 8.558-3.839 8.558-8.557v-38.851c-.001-4.719-3.84-8.558-8.558-8.558z" fill="#f4dd45"/><path d="m385.626 338.616h-26.202c-3.773 0-7.511 1.327-10.525 3.736-19.057 15.236-54.654 24.701-92.899 24.701s-73.842-9.465-92.899-24.701c-3.014-2.41-6.751-3.736-10.525-3.736h-26.202c-4.719 0-8.557-3.839-8.557-8.557v27.551c0 4.719 3.839 8.557 8.557 8.557h26.202c3.773 0 7.511 1.327 10.525 3.736 19.057 15.236 54.654 24.701 92.899 24.701s73.842-9.465 92.899-24.701c3.014-2.41 6.751-3.736 10.525-3.736h26.202c4.719 0 8.558-3.839 8.558-8.557v-27.551c-.001 4.718-3.84 8.557-8.558 8.557z" fill="#fcc101"/><g><path d="m315.53 345.903h-117.219c-4.263 0-7.719-3.456-7.719-7.719s3.456-7.719 7.719-7.719h117.219c4.263 0 7.719 3.456 7.719 7.719s-3.456 7.719-7.719 7.719z" fill="#fcc101"/></g></g></svg>