<svg height="512" viewBox="0 0 64 64" width="512" xmlns="http://www.w3.org/2000/svg"><g id="Layer_13" data-name="Layer 13"><path d="m51.71 11.71-1.42-1.42 1.59-1.58a3.84 3.84 0 0 0 1.12-2.71h2a5.79 5.79 0 0 1 -1.71 4.12z" fill="#976947"/><path d="m12.29 11.71-1.58-1.59a5.79 5.79 0 0 1 -1.71-4.12h2a3.84 3.84 0 0 0 1.12 2.71l1.59 1.58z" fill="#976947"/><path d="m42.41 58h2.59v-2h-4.59l-2-2h3.59v-2h-5.59l-4.7-4.71-1.42 1.42 14 14 1.42-1.42z" fill="#c18e5c"/><path d="m6 23h52v26h-52z" fill="#cda57d"/><path d="m2 39h30v10h-30z" fill="#976947"/><path d="m12 10a6.49 6.49 0 0 1 -3.58 5.79l-6.42 3.21h60l-6.42-3.21a6.49 6.49 0 0 1 -3.58-5.79z" fill="#cda57d"/><g fill="#c18e5c"><path d="m7 39h2v10h-2z"/><path d="m13 39h2v10h-2z"/><path d="m19 39h2v10h-2z"/><path d="m25 39h2v10h-2z"/><path d="m8 49h4v13h-4z"/><path d="m52 49h4v13h-4z"/></g><path d="m1 61h62v2h-62z" fill="#976947"/><path d="m2 19h60v4h-60z" fill="#976947"/><path d="m47 19a43.85 43.85 0 0 1 -14.18-15.5l-.82-1.5-.82 1.5a43.85 43.85 0 0 1 -14.18 15.5z" fill="#c18e5c"/><path d="m22 19 .46-.38a49.71 49.71 0 0 0 9.54-10.62 49.71 49.71 0 0 0 9.54 10.62l.46.38z" fill="#cda57d"/><path d="m38 32h12v17h-12z" fill="#976947"/><path d="m45 44v-12h-2v12h-5v2h12v-2z" fill="#c18e5c"/><path d="m12 27h12v8h-12z" fill="#ebf7fe"/><path d="m17 27h2v8h-2z" fill="#cda57d"/></g></svg>