<?xml version="1.0" encoding="iso-8859-1"?>
<!-- Generator: Adobe Illustrator 19.0.0, SVG Export Plug-In . SVG Version: 6.00 Build 0)  -->
<svg version="1.1" id="Capa_1" xmlns="http://www.w3.org/2000/svg" xmlns:xlink="http://www.w3.org/1999/xlink" x="0px" y="0px"
	 viewBox="0 0 512 512" style="enable-background:new 0 0 512 512;" xml:space="preserve">
<g>
	<g>
		<g>
			<path d="M256,192c-64.688,0-117.333,57.417-117.333,128S191.313,448,256,448s117.333-57.417,117.333-128S320.688,192,256,192z
				 M212.208,292.771c-1.875,3.729-5.646,5.896-9.542,5.896c-1.604,0-3.229-0.354-4.771-1.125l-16.563-8.292l-16.563,8.292
				c-5.292,2.646-11.667,0.479-14.313-4.771c-2.625-5.271-0.5-11.667,4.771-14.313l21.333-10.667c3-1.5,6.542-1.5,9.542,0
				l21.333,10.667C212.708,281.104,214.833,287.5,212.208,292.771z M286.875,260.771c-1.875,3.729-5.646,5.896-9.542,5.896
				c-1.604,0-3.229-0.354-4.771-1.125L256,257.25l-16.563,8.292c-5.292,2.646-11.667,0.479-14.313-4.771
				c-2.625-5.271-0.5-11.667,4.771-14.313l21.333-10.667c3-1.5,6.542-1.5,9.542,0l21.333,10.667
				C287.375,249.104,289.5,255.5,286.875,260.771z M356.771,278.458c5.271,2.646,7.396,9.042,4.771,14.313
				c-1.875,3.729-5.646,5.896-9.542,5.896c-1.604,0-3.229-0.354-4.771-1.125l-16.563-8.292l-16.563,8.292
				c-5.271,2.646-11.667,0.479-14.313-4.771c-2.625-5.271-0.5-11.667,4.771-14.313l21.333-10.667c3-1.5,6.542-1.5,9.542,0
				L356.771,278.458z"/>
			<path d="M443.25,147.533c4.896-3.271,6.229-9.896,2.958-14.792c-3.292-4.938-9.938-6.229-14.792-2.958
				c-11.66,7.774-24.991,12.362-36.865,15.183c-4.457-8.839-8.858-17.174-13.068-24.795c11.672-7.496,24.202-13.513,34.516-13.513
				c5.896,0,10.667-4.771,10.667-10.667c0-5.896-4.771-10.667-10.667-10.667c-14.99,0-31.048,7.457-45.098,16.313
				c-8.699-14.744-15.689-25.476-18.923-30.292c-0.917-55.46-24.479-68.856-27.208-70.231c-4.104-2.021-9.083-1.25-12.313,2
				c-15.688,15.688-25.896,31.313-30.729,39.543h-51.458c-4.833-8.229-15.042-23.855-30.729-39.543
				c-3.229-3.25-8.188-4.021-12.313-2c-2.729,1.375-26.292,14.771-27.208,70.231c-3.234,4.817-10.223,15.547-18.922,30.291
				C127.049,92.779,110.99,85.323,96,85.323c-5.896,0-10.667,4.771-10.667,10.667c0,5.896,4.771,10.667,10.667,10.667
				c10.292,0,22.827,6.026,34.508,13.529c-4.211,7.625-8.615,15.963-13.074,24.807c-11.841-2.816-25.148-7.412-36.85-15.21
				c-4.854-3.25-11.521-1.958-14.792,2.958c-3.271,4.896-1.938,11.521,2.958,14.792c12.564,8.373,26.464,13.67,39.155,17.077
				C85.216,213.319,64,273.959,64,330.662c0,88.731,74.583,164.379,77.771,167.546c1.167,1.167,2.604,2.063,4.167,2.583
				C147.313,501.25,180.229,512,234.667,512c2.833,0,5.542-1.125,7.542-3.125l7.542-7.542h12.5l7.542,7.542
				c2,2,4.708,3.125,7.542,3.125c54.438,0,87.354-10.75,88.729-11.209c1.563-0.521,3-1.417,4.167-2.583
				C373.417,495.041,448,419.394,448,330.662c0-56.703-21.216-117.343-43.905-166.052
				C416.786,161.202,430.686,155.907,443.25,147.533z M309.333,85.333c5.896,0,5.647,9.414,5.647,15.31
				c5.896,0,15.686,0.128,15.686,6.024c0,11.771-9.563,21.333-21.333,21.333C297.563,128,288,118.438,288,106.667
				C288,94.896,297.563,85.333,309.333,85.333z M235.479,123.917c1.646-3.979,5.542-6.583,9.854-6.583h21.333
				c4.313,0,8.208,2.604,9.854,6.583c1.646,3.979,0.729,8.583-2.313,11.625l-10.667,10.667c-2.083,2.083-4.813,3.125-7.542,3.125
				s-5.458-1.042-7.542-3.125l-10.667-10.667C234.75,132.5,233.833,127.896,235.479,123.917z M202.667,85.333
				c5.896,0,5.647,9.414,5.647,15.31c5.896,0,15.686,0.128,15.686,6.024c0,11.771-9.563,21.333-21.333,21.333
				c-11.771,0-21.333-9.563-21.333-21.333C181.333,94.896,190.896,85.333,202.667,85.333z M256,469.333
				c-76.458,0-138.667-67-138.667-149.333S179.542,170.667,256,170.667s138.667,67,138.667,149.333S332.458,469.333,256,469.333z"/>
		</g>
	</g>
</g>
<g>
</g>
<g>
</g>
<g>
</g>
<g>
</g>
<g>
</g>
<g>
</g>
<g>
</g>
<g>
</g>
<g>
</g>
<g>
</g>
<g>
</g>
<g>
</g>
<g>
</g>
<g>
</g>
<g>
</g>
</svg>
