<svg height="512pt" viewBox="0 0 512 512" width="512pt" xmlns="http://www.w3.org/2000/svg"><path d="m273 451c-5.519531 0-10 4.488281-10 10s4.480469 10 10 10c5.511719 0 10-4.488281 10-10s-4.488281-10-10-10zm0 0"/><path d="m462 0h-412c-27.570312 0-50 22.429688-50 50v332c0 27.570312 22.429688 50 50 50h86.320312l-32.765624 65.527344c-1.546876 3.101562-1.382813 6.78125.4375 9.730468 1.824218 2.945313 5.042968 4.742188 8.507812 4.742188h287c3.464844 0 6.683594-1.792969 8.507812-4.742188 1.820313-2.949218 1.984376-6.628906.4375-9.730468l-32.765624-65.527344h86.320312c27.570312 0 50-22.429688 50-50v-332c0-27.570312-22.429688-50-50-50zm-412 20h412c13.039062 0 24.160156 8.359375 28.285156 20h-468.570312c4.125-11.640625 15.246094-20 28.285156-20zm333.320312 472h-254.640624l10.5-21h93.820312c5.511719 0 10-4.488281 10-10s-4.488281-10-10-10h-83.820312l9.5-19h194.640624zm108.679688-110c0 16.542969-13.457031 30-30 30h-412c-16.542969 0-30-13.457031-30-30v-30h472zm0-50h-472v-272h472zm0 0"/><path d="m195.285156 106.722656h16.558594v65.597656c0 4.527344 5.847656 5.800782 9.359375 5.800782 3.550781 0 9.359375-1.3125 9.359375-5.800782v-65.597656h16.5625c4.136719 0 5.640625-4.917968 5.640625-8.277344 0-3.457031-1.535156-8.042968-5.640625-8.042968 0 0-51.617188 0-51.839844 0-4.136718 0-5.640625 4.617187-5.640625 8.042968 0 3.417969 1.519531 8.277344 5.640625 8.277344zm0 0"/><path d="m291.28125 172.601562c1.511719 4.921876 7.765625 6.242188 12.242188 6.242188 4.441406 0 10.695312-1.429688 12.238281-6.242188 0 0 22.230469-72.910156 22.320312-73.199218.886719-2.914063-1.253906-5.3125-3.660156-6.71875-3.414063-2-12.625-4.582032-14.21875 1.199218l-16.679687 61.558594s-16.726563-61.28125-16.800782-61.558594c-1.570312-5.746093-10.792968-3.203124-14.222656-1.199218-2.375 1.386718-4.402344 3.765625-3.660156 6.71875.003906 0 22.382812 72.996094 22.441406 73.199218zm0 0"/><path d="m121.792969 274.933594c-2.390625 1.464844-5.558594 2.070312-8.109375 2.070312-6.894532 0-11.03125-4.394531-16.378906-7.90625-3.566407-2.335937-7.25-1.464844-9.71875 1.90625-1.640626 2.238282-2.460938 4.480469-2.460938 6.71875 0 4 2.878906 7.601563 8.640625 10.800782 5.757813 3.199218 12.519531 4.796874 20.28125 4.796874 8.957031 0 16.199219-2.296874 21.71875-6.890624 5.519531-4.597657 8.28125-11.019532 8.28125-19.269532 0-4.71875-.941406-8.917968-2.820313-12.597656-5.609374-10.984375-18.054687-14.722656-28.367187-19.695312-3.027344-1.460938-6.851563-3.859376-6.851563-7.664063-.003906-9.800781 16.148438-7.574219 21.585938-5.261719 2.078125.882813 4.503906 2.621094 6.851562 2.621094 2.320313 0 4.140626-1.140625 5.460938-3.417969 2.28125-3.9375 3.03125-9.003906-.71875-12.269531-5.261719-4.578125-14.574219-5.195312-21.179688-5.195312-7.703124 0-16.125 2.042968-22.429687 6.816406-5.84375 4.429687-8.292969 11.34375-8.292969 18.503906 0 9.367188 5.234375 17.691406 13.441406 22.140625 3.757813 2.039063 7.5 3.882813 11.21875 5.519531 5.03125 2.21875 13.378907 5.867188 13.378907 12.417969 0 2.699219-1.476563 4.59375-3.53125 5.855469zm0 0"/><path d="m170.425781 290.65625c1.980469 1.105469 4.648438 1.464844 6.617188 1.464844 3.550781 0 9.359375-1.222656 9.359375-5.757813v-32.519531h23.882812v32.515625c0 4.53125 5.855469 5.761719 9.359375 5.761719 3.546875 0 9.359375-1.210938 9.359375-5.757813 0 0 0-75.988281 0-76.320312 0-4.527344-5.902344-5.640625-9.359375-5.640625-3.511719 0-9.359375 1.097656-9.359375 5.640625v29.398437h-23.882812s0-29.238281 0-29.398437c0-4.527344-5.882813-5.640625-9.359375-5.640625-3.511719 0-9.359375 1.097656-9.359375 5.640625v76.316406c0 2.042969 1.152344 3.410156 2.742187 4.296875zm0 0"/><path d="m263.441406 286c5.359375 4.5625 12.480469 6.839844 21.359375 6.839844 8.960938 0 16.121094-2.277344 21.480469-6.839844 5.359375-4.558594 8.039062-11.71875 8.039062-21.480469v-31.796875c0-9.761718-2.679687-16.921875-8.039062-21.480468-5.359375-4.5625-12.519531-6.839844-21.480469-6.839844-8.878906 0-16 2.277344-21.359375 6.839844-5.359375 4.558593-8.039062 11.71875-8.039062 21.480468v31.796875c0 9.761719 2.679687 16.921875 8.039062 21.480469zm10.679688-53.277344c0-8 3.5625-12 10.683594-12 7.199218 0 10.796874 4 10.796874 12v31.800782c0 8-3.597656 12-10.796874 12-7.121094 0-10.683594-4-10.683594-12zm0 0"/><path d="m334.601562 211.84375c-.015624.496094.058594 1.015625.238282 1.558594 0 0 23.808594 72.980468 23.882812 73.199218 1.5625 4.796876 7.953125 6.242188 12.359375 6.242188 4.339844 0 10.921875-1.234375 12.121094-6.242188l6.238281-28.4375s6.222656 28.363282 6.242188 28.4375c1.089844 4.984376 7.886718 6.242188 12.117187 6.242188 4.390625 0 10.664063-1.523438 12.359375-6.242188l23.878906-73.199218c.160157-.480469.242188-1 .242188-1.558594 0-1.921875-1.300781-3.640625-3.898438-5.160156-3.519531-2.058594-12.640624-4.527344-14.222656 1.199218l-18.238281 61.558594-9.480469-40.558594c-.78125-3.695312-5.789062-4.917968-9-4.917968-3.125 0-8.222656 1.207031-9 4.917968l-9.480468 40.558594s-18.199219-61.429687-18.238282-61.558594c-1.683594-5.671874-10.703125-3.257812-14.222656-1.199218-1.957031 1.140625-3.832031 2.914062-3.898438 5.160156zm0 0"/></svg>